<svg version="1.1" id="Capa_1" xmlns="http://www.w3.org/2000/svg"
  viewBox="0 0 58.958 58.959" style="enable-background:new 0 0 58.958 58.959;" xml:space="preserve">
  <style>
    #Capa_1 path {
      fill: currentColor;
    }
  </style>

  <path d="M58.282,27.844C50.55,21.397,42.818,14.95,35.086,8.503c-0.028-0.022-0.054-0.044-0.092-0.063
			c-0.133-0.086-0.297-0.122-0.471-0.118c-0.359-0.046-0.72-0.092-1.079-0.139c-0.501-0.064-0.991,0.171-1.258,0.59
			c-1.74,2.735-0.708,7.614-0.708,10.723c0,6.921,0,13.842,0,20.764c0,3.009-0.936,7.393,0.746,10.037
			c1.358,2.136,6.628-3.396,7.271-3.931c4.957-4.134,9.914-8.268,14.871-12.399C55.619,32.925,60.789,29.935,58.282,27.844z
			 M48.967,22.431c0.053,0.043,0.104,0.087,0.156,0.13c-0.059,0.059-0.12,0.113-0.166,0.191c-1.465,2.513-2.942,5.014-4.462,7.487
			c-2.476,4.033-5.091,7.984-7.597,11.994c-0.292,0.469-0.293,0.467-0.004-0.004c3.998-6.51,7.977-13.033,11.973-19.545
			C48.916,22.605,48.939,22.517,48.967,22.431z M45.973,19.965c0.005-0.007,0.003-0.018,0.008-0.025
			c0.556,0.463,1.11,0.926,1.667,1.39c-0.062,0.059-0.125,0.113-0.174,0.192c-4.686,7.635-9.342,15.29-14.037,22.919
			c0-0.428,0-0.854,0-1.281c2.939-5.743,5.922-11.465,9.044-17.103c1.024-1.831,2.049-3.651,3.105-5.427
			C45.716,20.409,45.844,20.188,45.973,19.965z M43.479,17.855c0.304,0.253,0.606,0.506,0.911,0.759
			c-0.066,0.057-0.136,0.108-0.187,0.186c-3.229,4.895-6.452,9.797-9.695,14.684c-0.305,0.461-0.376,0.422-0.149-0.082
			c0.471-1.051,0.964-2.091,1.481-3.119c2.43-4.111,4.917-8.185,7.532-12.177C43.422,18.028,43.448,17.941,43.479,17.855z
			 M38.48,13.688c1.21,1.009,2.419,2.017,3.628,3.025c-0.066,0.056-0.136,0.108-0.189,0.185c-3.11,4.443-6.021,9.011-8.437,13.824
			c-0.017,0.026-0.03,0.052-0.046,0.079c0-2.733,0-5.464,0-8.196c1.667-2.879,3.32-5.766,4.958-8.662
			C38.439,13.863,38.457,13.774,38.48,13.688z M34.857,11.268c0.029-0.084,0.062-0.17,0.093-0.254
			c0.026-0.074,0.037-0.15,0.054-0.226c0.134,0.111,0.268,0.222,0.399,0.333c-0.071,0.053-0.146,0.103-0.204,0.178
			c-0.028,0.037-0.057,0.072-0.084,0.109C34.779,11.846,34.667,11.789,34.857,11.268z M33.364,16.776
			c0.946-1.469,1.923-2.939,2.952-4.393c0.134-0.189,0.21-0.274,0.248-0.294c0.007,0.005,0.014,0.011,0.021,0.017
			c-0.003,0.046-0.043,0.15-0.146,0.352c-0.995,1.912-2.01,3.815-3.034,5.714C33.391,17.771,33.375,17.296,33.364,16.776z
			 M34.957,45.4c-0.519,0.867-1.021,1.743-1.521,2.62c0-0.064,0-0.129,0-0.193c0.504-0.81,1.008-1.62,1.511-2.433
			C35.238,44.926,35.24,44.928,34.957,45.4z M38.906,44.919c-1.026,0.856-2.053,1.712-3.079,2.566
			c4.007-7.062,8.711-13.754,12.868-20.72c0.562-0.941,1.112-1.894,1.665-2.841c0.046-0.08,0.066-0.167,0.094-0.254
			c0.573,0.478,1.146,0.956,1.719,1.434c-0.059,0.059-0.122,0.113-0.168,0.193c-0.454,0.785-0.907,1.572-1.359,2.36
			C46.943,33.552,43.01,39.3,38.906,44.919z M54.195,32.171c-2.485,2.071-4.97,4.143-7.454,6.216
			c1.962-3.618,3.982-7.21,6.034-10.787c0.228-0.362,0.45-0.729,0.673-1.095c0.049-0.08,0.07-0.169,0.098-0.257
			c0.349,0.29,0.695,0.58,1.043,0.87C57.531,29.57,57.05,29.79,54.195,32.171z" />
  <path
    d="M26.428,50.288c2.259-1.639,0.995-7.961,0.995-10.184c0-6.922,0-13.843,0-20.765c0-3.186,1.042-8.07-0.742-10.875
			c-0.148-0.232-0.548-0.291-0.793-0.26c-0.401,0.052-0.804,0.103-1.205,0.155c-0.03,0.005-0.053,0.019-0.08,0.024
			c-0.233,0.015-0.467,0.09-0.648,0.24C16.267,15.034,8.578,21.444,0.89,27.854c-2.677,2.232,1.388,4.425,2.967,5.741
			c5.148,4.293,10.295,8.585,15.443,12.877C20.677,47.622,24.178,51.919,26.428,50.288z M24.047,47.932
			c-0.016,0.043-0.031,0.086-0.047,0.129c-0.085-0.07-0.17-0.142-0.255-0.212c0.015-0.02,0.029-0.038,0.044-0.058
			C24.125,47.354,24.236,47.411,24.047,47.932z M25.47,42.531c-0.925,1.434-1.878,2.867-2.882,4.284
			c-0.013,0.019-0.019,0.023-0.031,0.041c-0.034-0.029-0.069-0.058-0.104-0.086c0.006-0.013,0.007-0.017,0.014-0.029
			c0.984-1.892,1.988-3.775,3.003-5.654C25.47,41.567,25.47,42.051,25.47,42.531z M23.947,13.8c0.523-0.875,1.03-1.758,1.534-2.644
			c0.01,0.05,0.02,0.098,0.028,0.15c-0.518,0.833-1.036,1.665-1.553,2.499C23.666,14.275,23.664,14.274,23.947,13.8z M5.495,32.631
			c-1.074-0.896-2.148-1.792-3.223-2.688c-0.142-0.119-0.237-0.237-0.296-0.356c0.298-0.527,0.595-1.053,0.893-1.58
			c0.329-0.251,0.666-0.472,0.876-0.647c2.966-2.473,5.933-4.946,8.898-7.42c-2.108,3.917-4.297,7.795-6.515,11.66
			C5.915,31.941,5.705,32.286,5.495,32.631z M6.939,33.835c0.441-0.763,0.882-1.526,1.32-2.292
			c3.967-6.317,8.193-12.47,12.62-18.472c0.903-0.752,1.806-1.505,2.708-2.257c-4.112,7.394-9.045,14.357-13.379,21.62
			c-0.548,0.919-1.086,1.847-1.625,2.772C8.036,34.75,7.487,34.292,6.939,33.835z M9.987,36.377
			c1.452-2.488,2.917-4.967,4.421-7.417c2.476-4.034,5.091-7.984,7.597-11.994c0.292-0.468,0.293-0.467,0.004,0.003
			c-3.984,6.489-7.951,12.991-11.933,19.48C10.047,36.426,10.017,36.4,9.987,36.377z M13.09,38.963
			c-0.54-0.45-1.08-0.899-1.619-1.351c4.737-7.722,9.446-15.464,14.197-23.18c-0.008,0.443-0.023,0.88-0.042,1.302
			c-2.991,5.847-6.025,11.67-9.202,17.409c-1.025,1.83-2.049,3.65-3.106,5.426C13.241,38.7,13.165,38.832,13.09,38.963z
			 M14.741,40.34c3.216-4.874,6.426-9.755,9.655-14.624c0.305-0.46,0.376-0.422,0.15,0.082c-0.471,1.052-0.964,2.092-1.482,3.119
			c-2.416,4.091-4.893,8.142-7.493,12.114C15.294,40.802,15.018,40.57,14.741,40.34z M17.025,42.243
			c3.096-4.425,5.992-8.972,8.396-13.765c0.016-0.027,0.032-0.055,0.048-0.082c0,2.732,0,5.464,0,8.195
			c-1.653,2.855-3.294,5.72-4.918,8.593c-0.575-0.479-1.149-0.959-1.724-1.438C18.227,43.247,17.626,42.746,17.025,42.243z" />
</svg>
